<svg xmlns="http://www.w3.org/2000/svg" viewBox="0 0 176.17 176.17"><defs><style>.cls-1,.cls-2,.cls-3{fill:none;stroke-linecap:round;stroke-miterlimit:10;stroke-width:4.5px;}.cls-1{stroke:#fbed1d;}.cls-2{stroke:#d065a1;}.cls-3{stroke:#59c9f3;}</style></defs><title>DECO Yarn Ball</title><g id="Layer_2" data-name="Layer 2"><g id="Layer_1-2" data-name="Layer 1"><path class="cls-1" d="M58.79,75.25A81,81,0,0,0,74.56,59.58h0a78.6,78.6,0,0,0,7.32-11.45,80.15,80.15,0,0,0,6.28-15.74,81.12,81.12,0,0,0,3-22c0-2.74-.14-5.45-.4-8.12"/><path class="cls-2" d="M102.21,3.36q.26,3.46.26,7a92.34,92.34,0,0,1-3.2,24.19,90.93,90.93,0,0,1-4.83,13.56,90.25,90.25,0,0,1-6.28,11.67,91.49,91.49,0,0,1-7.28,10A93.37,93.37,0,0,1,69.05,81.54"/><path class="cls-3" d="M80.84,2.51a72.79,72.79,0,0,1,.43,7.86,71,71,0,0,1-4.22,24.18h0a70.27,70.27,0,0,1-7.34,14.72,71.55,71.55,0,0,1-21.3,21.14"/><path class="cls-2" d="M70.75,4a59.21,59.21,0,0,1,.34,6.42,60.64,60.64,0,0,1-5.71,25.8A61.29,61.29,0,0,1,35.05,66.11"/><path class="cls-1" d="M60.66,6.68c.1,1.22.14,2.45.14,3.69,0,28.06-23.06,49.54-50.56,51.7-1.05.08-3.11.24-4.22.41"/><path class="cls-3" d="M87.82,98.31A104.38,104.38,0,0,0,77.59,88.15a105.1,105.1,0,0,0-8.54-6.61,103.16,103.16,0,0,0-10.26-6.29,98.89,98.89,0,0,0-10.38-4.83,99.6,99.6,0,0,0-13.36-4.31c-8-2-16.42-2.4-25-3.26-1.45-.15-2.5-.22-4-.37"/><path class="cls-2" d="M3.31,74.37q3.65-.28,7.37-.29a92.44,92.44,0,0,1,24,3.16A90.18,90.18,0,0,1,48.19,82h0a88.11,88.11,0,0,1,11.67,6.23,91,91,0,0,1,9.22,6.61,92.19,92.19,0,0,1,12.09,11.86"/><path class="cls-1" d="M2.25,85.79a83.76,83.76,0,0,1,8.43-.43,80.9,80.9,0,0,1,21.92,3,80.92,80.92,0,0,1,26.31,12.88,81.14,81.14,0,0,1,15.94,15.58"/><path class="cls-3" d="M70,127a71.24,71.24,0,0,0-21.42-20.82,69.92,69.92,0,0,0-13.74-6.7h0a70.85,70.85,0,0,0-24.12-4.2,72.57,72.57,0,0,0-8.12.46"/><path class="cls-2" d="M4.05,105.81a60.54,60.54,0,0,1,6.63-.36,60.74,60.74,0,0,1,24.56,5.14h0a61.33,61.33,0,0,1,30.38,29.23"/><path class="cls-1" d="M6.82,115.89c1.27-.1,2.56-.15,3.86-.15,28.06,0,50.6,22.76,51.46,50.8,0,1.05.11,2.33.12,3.44"/><path class="cls-3" d="M11.09,126.11a40.43,40.43,0,0,1,40,39.49"/><path class="cls-2" d="M18.12,137.88a29.66,29.66,0,0,1,21.12,20.84"/><path class="cls-3" d="M62.26,170c0-1.24-.07-2.3-.12-3.44-.48-9.23,1.21-18.2,3.49-26.72A101.84,101.84,0,0,1,70,127a100,100,0,0,1,4.88-10.17,101.85,101.85,0,0,1,6.33-10.1,99.69,99.69,0,0,1,6.64-8.41,104.38,104.38,0,0,1,9.88-9.85"/><path class="cls-2" d="M74.07,172.81q-.22-3.1-.22-6.27A92.24,92.24,0,0,1,107,95.64"/><path class="cls-1" d="M85.48,173.92q-.35-3.64-.34-7.38a81,81,0,0,1,32.11-64.66"/><path class="cls-3" d="M95.4,173.65q-.34-3.51-.35-7.11a71.2,71.2,0,0,1,32.6-59.87"/><path class="cls-2" d="M105.5,172.2c-.18-1.86-.27-3.75-.27-5.66A61.08,61.08,0,0,1,141,110.92"/><path class="cls-1" d="M115.61,169.46c-.06-1-.09-1.94-.09-2.92,0-28,22.53-51.92,50.59-51.92,1,0,2.88,0,4,0"/><path class="cls-3" d="M125.91,165.2a40.43,40.43,0,0,1,39.2-39.07"/><path class="cls-2" d="M138,158a29.63,29.63,0,0,1,19.9-19.84"/><path class="cls-3" d="M87.48,78.21A104.09,104.09,0,0,0,97.7,88.46,104.18,104.18,0,0,0,107,95.64a101.9,101.9,0,0,0,10.28,6.24,102.8,102.8,0,0,0,23.78,9c7.89,1.93,16.06,3.68,24.53,3.68,1.49,0,3,.07,4.5,0"/><path class="cls-2" d="M94.7,68.87A92.83,92.83,0,0,0,107,81.28a92.38,92.38,0,0,0,9.81,7.18,91.7,91.7,0,0,0,11.64,6.28,90,90,0,0,0,13.48,4.83,92,92,0,0,0,24.42,3.27c2.16,0,4.31-.07,6.43-.23"/><path class="cls-1" d="M173.92,91.19c-2.5.24-5,.36-7.6.36A81.45,81.45,0,0,1,144,88.46h0a80.65,80.65,0,0,1-15.6-6.28A79.39,79.39,0,0,1,117.25,75,81.07,81.07,0,0,1,101,58.51"/><path class="cls-3" d="M105.77,48h0a71.58,71.58,0,0,0,21.88,22.28,70.88,70.88,0,0,0,38.67,11.39,72.26,72.26,0,0,0,7.39-.38"/><path class="cls-2" d="M110.05,34.19A61.22,61.22,0,0,0,141,66a60.64,60.64,0,0,0,25.28,5.47,59.67,59.67,0,0,0,6-.3"/><path class="cls-1" d="M113.63,5.08c0,1.16.32,3.46.53,5.44,2.88,27.08,24.1,50.65,52.16,50.65,1.12,0,2.22,0,3.32-.11"/><path class="cls-3" d="M125.9,11a40.42,40.42,0,0,0,39.58,39.84"/><path class="cls-2" d="M137.7,18a29.64,29.64,0,0,0,20.84,21"/><path class="cls-3" d="M77.59,87.9A102,102,0,0,0,87.48,78a103.74,103.74,0,0,0,7.22-9.34A102.43,102.43,0,0,0,101,58.26a101.38,101.38,0,0,0,4.82-10.54h0a101.35,101.35,0,0,0,4.28-13.77c1.81-7.64,2.53-15.67,3.35-23.73.14-1.4.11-3.59.23-5.14"/><path class="cls-3" d="M10.72,50.79a40.41,40.41,0,0,0,39.7-39.9"/><path class="cls-2" d="M17.64,39a29.63,29.63,0,0,0,21-21.11"/></g></g></svg>