<svg id="Layer_2" data-name="Layer 2" xmlns="http://www.w3.org/2000/svg" viewBox="0 0 451.71 288"><defs><style>.cls-1{fill:#fff;}.cls-2{fill:#b1e2f9;}.cls-3,.cls-4{fill:none;stroke-linecap:round;stroke-miterlimit:10;stroke-width:4.5px;}.cls-3{stroke:#b1e2f9;}.cls-4{stroke:#59c9f3;}</style></defs><path class="cls-1" d="M231.83,131.7V106.3a2.61,2.61,0,0,1,.81-1.94,2.72,2.72,0,0,1,2-.79h9a16.94,16.94,0,0,1,12,4.39,14.37,14.37,0,0,1,4.7,11V119a14.49,14.49,0,0,1-4.7,11,16.89,16.89,0,0,1-12,4.41h-9a2.72,2.72,0,0,1-2-.79A2.61,2.61,0,0,1,231.83,131.7Zm5.54-2.21h6.21a10.92,10.92,0,0,0,7.92-2.91,10,10,0,0,0,3-7.5V119a10.11,10.11,0,0,0-3-7.54,10.83,10.83,0,0,0-7.92-3h-6.21v21Z"/><path class="cls-1" d="M278.81,134.44a2.72,2.72,0,0,1-2-.79,2.61,2.61,0,0,1-.81-1.94V106.3a2.61,2.61,0,0,1,.81-1.94,2.72,2.72,0,0,1,2-.79h18.32a2.41,2.41,0,0,1,1.75.71,2.41,2.41,0,0,1,0,3.44,2.41,2.41,0,0,1-1.75.71H281.55v8H295.1a2.47,2.47,0,0,1,2.48,2.47,2.27,2.27,0,0,1-.72,1.68,2.41,2.41,0,0,1-1.75.71H281.55v8.29h15.79a2.44,2.44,0,0,1,1.73.71,2.28,2.28,0,0,1,.74,1.72,2.32,2.32,0,0,1-.72,1.72,2.41,2.41,0,0,1-1.75.71H278.81Z"/><path class="cls-1" d="M329.79,135a15.51,15.51,0,0,1-11.43-4.59,15.33,15.33,0,0,1-4.59-11.29V119a15.48,15.48,0,0,1,4.59-11.33A15.72,15.72,0,0,1,330,103a17.48,17.48,0,0,1,10.8,3.48,2.67,2.67,0,0,1,.29,4,2.69,2.69,0,0,1-2,.77,2.74,2.74,0,0,1-1.67-.53A11.89,11.89,0,0,0,330,108a9.78,9.78,0,0,0-7.43,3.15,10.87,10.87,0,0,0-3,7.74V119a10.94,10.94,0,0,0,3,7.76,9.75,9.75,0,0,0,7.43,3.18,12,12,0,0,0,7.88-3,2.48,2.48,0,0,1,1.66-.62,2.56,2.56,0,0,1,1.82.75,2.36,2.36,0,0,1,.79,1.76,2.49,2.49,0,0,1-.9,1.94A17,17,0,0,1,329.79,135Z"/><path class="cls-1" d="M384.24,130.29a17.32,17.32,0,0,1-23.62,0A15.3,15.3,0,0,1,356,119.09V119a15.37,15.37,0,0,1,4.68-11.29,17.32,17.32,0,0,1,23.63,0,15.3,15.3,0,0,1,4.63,11.25V119A15.37,15.37,0,0,1,384.24,130.29Zm-19.42-3.53a10.86,10.86,0,0,0,15.3,0,10.75,10.75,0,0,0,3-7.72V119a10.89,10.89,0,0,0-3-7.78,10.8,10.8,0,0,0-15.3,0,10.82,10.82,0,0,0-3,7.74V119A10.81,10.81,0,0,0,364.82,126.76Z"/><path class="cls-2" d="M231.83,181.7V156a2.54,2.54,0,0,1,.81-1.92,2.76,2.76,0,0,1,2-.77,2.69,2.69,0,0,1,2,.77,2.58,2.58,0,0,1,.79,1.92V179.5h14.26a2.45,2.45,0,0,1,1.78.73,2.42,2.42,0,0,1,0,3.48,2.45,2.45,0,0,1-1.78.73h-17a2.72,2.72,0,0,1-2-.79A2.61,2.61,0,0,1,231.83,181.7Z"/><path class="cls-2" d="M271.47,184.44a2.72,2.72,0,0,1-2-.79,2.61,2.61,0,0,1-.81-1.94V156.3a2.61,2.61,0,0,1,.81-1.94,2.72,2.72,0,0,1,2-.79h18.32a2.41,2.41,0,0,1,1.75.71,2.41,2.41,0,0,1,0,3.44,2.41,2.41,0,0,1-1.75.71H274.22v8h13.54a2.47,2.47,0,0,1,2.48,2.47,2.27,2.27,0,0,1-.72,1.68,2.41,2.41,0,0,1-1.75.71H274.22v8.29H290a2.44,2.44,0,0,1,1.73.71,2.28,2.28,0,0,1,.74,1.72,2.32,2.32,0,0,1-.72,1.72,2.41,2.41,0,0,1-1.75.71H271.47Z"/><path class="cls-2" d="M305.67,182.14a2.8,2.8,0,0,1,.36-1.24l11.7-25.58a3.46,3.46,0,0,1,3.33-2.2h0.27a3.43,3.43,0,0,1,3.29,2.2l11.7,25.58a2.38,2.38,0,0,1,.31,1.15,2.55,2.55,0,0,1-2.61,2.6,2.78,2.78,0,0,1-2.7-1.9L328.75,177h-15.3l-2.66,6a2.58,2.58,0,0,1-2.56,1.72,2.51,2.51,0,0,1-1.82-.73A2.41,2.41,0,0,1,305.67,182.14Zm9.9-10h11.07l-5.54-12.48Z"/><path class="cls-2" d="M351.61,182V156.3a2.61,2.61,0,0,1,.81-1.94,2.72,2.72,0,0,1,2-.79h11.25q5.85,0,9.09,3.09a9.1,9.1,0,0,1,2.61,6.66v0.09a8.94,8.94,0,0,1-1.91,5.89,10.61,10.61,0,0,1-5.24,3.33l6,7.45a3.37,3.37,0,0,1,.9,2.07,2.29,2.29,0,0,1-.81,1.81,2.73,2.73,0,0,1-1.84.71,3.28,3.28,0,0,1-2.7-1.41l-7.65-9.57h-7V182a2.58,2.58,0,0,1-.79,1.92,2.69,2.69,0,0,1-2,.77,2.76,2.76,0,0,1-2-.77A2.54,2.54,0,0,1,351.61,182Zm5.54-13.1h8.1a7.32,7.32,0,0,0,4.73-1.41,4.57,4.57,0,0,0,1.75-3.75v-0.09a4.51,4.51,0,0,0-1.71-3.79,7.71,7.71,0,0,0-4.82-1.32h-8.05v10.36Z"/><path class="cls-2" d="M393.15,182V156.12a2.61,2.61,0,0,1,.81-1.94,2.72,2.72,0,0,1,2-.79h0.58A3.73,3.73,0,0,1,399.4,155l15.75,20V156a2.53,2.53,0,0,1,.79-1.87,2.63,2.63,0,0,1,1.91-.77,2.71,2.71,0,0,1,1.94.77,2.49,2.49,0,0,1,.81,1.87v25.93a2.58,2.58,0,0,1-.79,1.92,2.63,2.63,0,0,1-1.91.77h-0.22A3.7,3.7,0,0,1,414.8,183l-16.2-20.55V182a2.53,2.53,0,0,1-.79,1.88,2.63,2.63,0,0,1-1.91.77,2.71,2.71,0,0,1-1.93-.77A2.49,2.49,0,0,1,393.15,182Z"/><path class="cls-3" d="M64.47,131.17A81,81,0,0,0,80.24,115.5h0A78.6,78.6,0,0,0,87.56,104,80.15,80.15,0,0,0,93.84,88.3a81.12,81.12,0,0,0,3-22c0-2.74-.14-5.45-0.4-8.12"/><path class="cls-4" d="M107.89,59.28q0.25,3.47.26,7a92.34,92.34,0,0,1-3.2,24.19A90.93,90.93,0,0,1,100.12,104a90.25,90.25,0,0,1-6.28,11.67,91.49,91.49,0,0,1-7.28,10,93.37,93.37,0,0,1-11.83,11.78"/><path class="cls-3" d="M86.52,58.43a72.79,72.79,0,0,1,.43,7.86,71,71,0,0,1-4.22,24.18h0a70.27,70.27,0,0,1-7.34,14.72,71.55,71.55,0,0,1-21.3,21.14"/><path class="cls-4" d="M76.43,59.87a59.21,59.21,0,0,1,.34,6.42,60.64,60.64,0,0,1-5.71,25.8A61.29,61.29,0,0,1,40.73,122"/><path class="cls-3" d="M66.34,62.6c0.1,1.22.14,2.45,0.14,3.69,0,28.06-23.06,49.54-50.56,51.7-1.05.08-3.11,0.24-4.22,0.41"/><path class="cls-3" d="M93.5,154.23a104.38,104.38,0,0,0-10.23-10.16,105.1,105.1,0,0,0-8.54-6.61,103.16,103.16,0,0,0-10.26-6.29,98.89,98.89,0,0,0-10.38-4.83A99.6,99.6,0,0,0,40.73,122c-8-2-16.42-2.4-25-3.26-1.45-.15-2.5-0.22-4-0.37"/><path class="cls-4" d="M9,130.29q3.65-.28,7.37-0.29a92.44,92.44,0,0,1,24,3.16,90.18,90.18,0,0,1,13.48,4.78h0a88.11,88.11,0,0,1,11.67,6.23,91,91,0,0,1,9.22,6.61,92.19,92.19,0,0,1,12.09,11.86"/><path class="cls-3" d="M7.93,141.71a83.76,83.76,0,0,1,8.43-.43,80.9,80.9,0,0,1,21.92,3,80.92,80.92,0,0,1,26.31,12.88,81.14,81.14,0,0,1,15.94,15.58"/><path class="cls-3" d="M75.65,182.91a71.24,71.24,0,0,0-21.42-20.82,69.92,69.92,0,0,0-13.74-6.7h0a70.85,70.85,0,0,0-24.12-4.2,72.57,72.57,0,0,0-8.12.46"/><path class="cls-4" d="M9.73,161.73a61.24,61.24,0,0,1,31.19,4.78h0a61.33,61.33,0,0,1,30.38,29.23"/><path class="cls-3" d="M12.5,171.81c1.27-.1,2.56-0.15,3.86-0.15,28.06,0,50.6,22.76,51.46,50.8,0,1.05.11,2.33,0.12,3.44"/><path class="cls-3" d="M16.77,182a40.43,40.43,0,0,1,40,39.49"/><path class="cls-4" d="M23.8,193.8a29.66,29.66,0,0,1,21.12,20.84"/><path class="cls-3" d="M67.94,225.9c0-1.24-.07-2.3-0.12-3.44-0.48-9.23,1.21-18.2,3.49-26.72a101.84,101.84,0,0,1,4.34-12.83,100,100,0,0,1,4.88-10.17,101.85,101.85,0,0,1,6.33-10.1,99.69,99.69,0,0,1,6.64-8.41,104.38,104.38,0,0,1,9.88-9.85"/><path class="cls-4" d="M79.75,228.73q-0.23-3.1-.22-6.27a92.24,92.24,0,0,1,33.12-70.9"/><path class="cls-3" d="M91.16,229.84q-0.34-3.65-.34-7.38a81,81,0,0,1,32.11-64.66"/><path class="cls-3" d="M101.08,229.57q-0.35-3.51-.35-7.11a71.2,71.2,0,0,1,32.6-59.87"/><path class="cls-4" d="M111.18,228.12c-0.18-1.86-.27-3.75-0.27-5.66a61.08,61.08,0,0,1,35.8-55.62"/><path class="cls-3" d="M121.29,225.38c-0.06-1-.09-1.94-0.09-2.92,0-28.05,22.53-51.92,50.59-51.92,1,0,2.88,0,4,0"/><path class="cls-3" d="M131.59,221.12A40.43,40.43,0,0,1,170.79,182"/><path class="cls-4" d="M143.65,213.93a29.63,29.63,0,0,1,19.9-19.84"/><path class="cls-3" d="M93.16,134.13a102.54,102.54,0,0,0,19.49,17.43,101.9,101.9,0,0,0,10.28,6.24,102.8,102.8,0,0,0,23.78,9c7.89,1.93,16.06,3.68,24.54,3.68,1.49,0,3,.07,4.5,0"/><path class="cls-4" d="M100.38,124.79a93.07,93.07,0,0,0,22.08,19.59,91.7,91.7,0,0,0,11.64,6.28,90,90,0,0,0,13.48,4.83A92,92,0,0,0,172,158.76c2.16,0,4.31-.07,6.43-0.23"/><path class="cls-3" d="M179.6,147.1c-2.5.24-5,.36-7.6,0.36a81.45,81.45,0,0,1-22.28-3.09h0a80.65,80.65,0,0,1-15.6-6.28A79.39,79.39,0,0,1,122.93,131a81.07,81.07,0,0,1-16.3-16.53"/><path class="cls-3" d="M111.45,103.88h0A71.11,71.11,0,0,0,172,137.56a72.26,72.26,0,0,0,7.39-.38"/><path class="cls-4" d="M115.73,90.11A61.08,61.08,0,0,0,172,127.39a59.67,59.67,0,0,0,6-.3"/><path class="cls-3" d="M119.31,61c0,1.16.32,3.46,0.53,5.44,2.88,27.08,24.1,50.65,52.16,50.65,1.12,0,2.22,0,3.32-.11"/><path class="cls-3" d="M131.58,66.86a40.42,40.42,0,0,0,39.58,39.84"/><path class="cls-4" d="M143.38,73.88a29.64,29.64,0,0,0,20.84,21"/><path class="cls-3" d="M83.27,143.82a102,102,0,0,0,9.89-9.94,103.74,103.74,0,0,0,7.22-9.34,102.43,102.43,0,0,0,6.25-10.36,101.38,101.38,0,0,0,4.82-10.54h0a101.35,101.35,0,0,0,4.28-13.77c1.81-7.64,2.53-15.67,3.35-23.73,0.14-1.4.11-3.59,0.23-5.14"/><path class="cls-3" d="M16.4,106.71a40.41,40.41,0,0,0,39.7-39.9"/><path class="cls-4" d="M23.32,94.9a29.63,29.63,0,0,0,21-21.11"/></svg>