<svg id="Layer_2" data-name="Layer 2" xmlns="http://www.w3.org/2000/svg" viewBox="0 0 452.42 288"><defs><style>.cls-1{fill:#fff;}.cls-2{fill:#fdf49a;}.cls-3,.cls-4{fill:none;stroke-linecap:round;stroke-miterlimit:10;stroke-width:4.5px;}.cls-3{stroke:#fdf49a;}.cls-4{stroke:#fbed1d;}</style></defs><path class="cls-1" d="M236.29,131.7V106.3a2.61,2.61,0,0,1,.81-1.94,2.72,2.72,0,0,1,2-.79h9a16.94,16.94,0,0,1,12,4.39,14.37,14.37,0,0,1,4.7,11V119a14.49,14.49,0,0,1-4.7,11,16.89,16.89,0,0,1-12,4.41h-9a2.72,2.72,0,0,1-2-.79A2.61,2.61,0,0,1,236.29,131.7Zm5.54-2.21H248a10.92,10.92,0,0,0,7.92-2.91,10,10,0,0,0,3-7.5V119a10.11,10.11,0,0,0-3-7.54,10.83,10.83,0,0,0-7.92-3h-6.21v21Z"/><path class="cls-1" d="M283.26,134.44a2.72,2.72,0,0,1-2-.79,2.61,2.61,0,0,1-.81-1.94V106.3a2.61,2.61,0,0,1,.81-1.94,2.72,2.72,0,0,1,2-.79h18.32a2.41,2.41,0,0,1,1.75.71,2.41,2.41,0,0,1,0,3.44,2.41,2.41,0,0,1-1.75.71H286v8h13.54a2.47,2.47,0,0,1,2.48,2.47,2.27,2.27,0,0,1-.72,1.68,2.41,2.41,0,0,1-1.75.71H286v8.29H301.8a2.44,2.44,0,0,1,1.73.71,2.28,2.28,0,0,1,.74,1.72,2.32,2.32,0,0,1-.72,1.72,2.41,2.41,0,0,1-1.75.71H283.26Z"/><path class="cls-1" d="M334.25,135a15.51,15.51,0,0,1-11.43-4.59,15.33,15.33,0,0,1-4.59-11.29V119a15.48,15.48,0,0,1,4.59-11.33A15.72,15.72,0,0,1,334.48,103a17.48,17.48,0,0,1,10.8,3.48,2.67,2.67,0,0,1,.29,4,2.69,2.69,0,0,1-2,.77,2.74,2.74,0,0,1-1.67-.53,11.89,11.89,0,0,0-7.51-2.78,9.78,9.78,0,0,0-7.43,3.15,10.87,10.87,0,0,0-3,7.74V119a10.94,10.94,0,0,0,3,7.76,9.75,9.75,0,0,0,7.43,3.18,12,12,0,0,0,7.88-3,2.48,2.48,0,0,1,1.66-.62,2.56,2.56,0,0,1,1.82.75,2.36,2.36,0,0,1,.79,1.76,2.49,2.49,0,0,1-.9,1.94A17,17,0,0,1,334.25,135Z"/><path class="cls-1" d="M388.7,130.29a17.32,17.32,0,0,1-23.62,0,15.3,15.3,0,0,1-4.63-11.25V119a15.37,15.37,0,0,1,4.68-11.29,17.32,17.32,0,0,1,23.63,0,15.3,15.3,0,0,1,4.63,11.25V119A15.37,15.37,0,0,1,388.7,130.29Zm-19.42-3.53a10.86,10.86,0,0,0,15.3,0,10.75,10.75,0,0,0,3-7.72V119a10.89,10.89,0,0,0-3-7.78,10.8,10.8,0,0,0-15.3,0,10.82,10.82,0,0,0-3,7.74V119A10.81,10.81,0,0,0,369.28,126.76Z"/><path class="cls-2" d="M247.31,184.88A19.58,19.58,0,0,1,235.48,181a2.5,2.5,0,0,1-.32-3.86,2.58,2.58,0,0,1,1.84-.73,2.7,2.7,0,0,1,1.62.49,14.11,14.11,0,0,0,8.82,3.17,6.86,6.86,0,0,0,4.07-1.08,3.3,3.3,0,0,0,1.51-2.8V176.1a3.18,3.18,0,0,0-1.44-2.73,18,18,0,0,0-5.67-2,42.78,42.78,0,0,1-4.5-1.32,13,13,0,0,1-3.24-1.72,6.2,6.2,0,0,1-2.09-2.58,9.06,9.06,0,0,1-.65-3.59v-0.09a8,8,0,0,1,3-6.46,11.75,11.75,0,0,1,7.74-2.49,17.79,17.79,0,0,1,10,2.87,2.27,2.27,0,0,1,1.21,2.16,2.37,2.37,0,0,1-.77,1.79,2.58,2.58,0,0,1-1.84.73,2.79,2.79,0,0,1-1.44-.4,13.52,13.52,0,0,0-7.25-2.34,6.12,6.12,0,0,0-3.74,1,3.15,3.15,0,0,0-1.39,2.62v0.09a3.16,3.16,0,0,0,1.51,2.8,21.31,21.31,0,0,0,6,2.05q5.22,1.23,7.65,3.29a7.12,7.12,0,0,1,2.43,5.75v0.09a8.16,8.16,0,0,1-3.11,6.75A12.7,12.7,0,0,1,247.31,184.88Z"/><path class="cls-2" d="M279.58,182V158.59h-7.65a2.46,2.46,0,0,1-1.82-.75,2.47,2.47,0,0,1,0-3.53,2.47,2.47,0,0,1,1.82-.75h20.93a2.51,2.51,0,0,1,0,5h-7.7V182a2.56,2.56,0,0,1-.81,1.9,2.87,2.87,0,0,1-4,0A2.56,2.56,0,0,1,279.58,182Z"/><path class="cls-2" d="M320.66,184.92q-6.25,0-9.83-3.48t-3.58-10.1V156a2.54,2.54,0,0,1,.81-1.92,2.76,2.76,0,0,1,2-.77,2.71,2.71,0,0,1,1.94.77,2.54,2.54,0,0,1,.81,1.92v15.08q0,4.23,2.09,6.5a7.58,7.58,0,0,0,5.87,2.27,7.69,7.69,0,0,0,5.83-2.18q2.09-2.18,2.09-6.37V156a2.54,2.54,0,0,1,.81-1.92,2.76,2.76,0,0,1,2-.77,2.71,2.71,0,0,1,1.94.77,2.54,2.54,0,0,1,.81,1.92v15q0,6.75-3.6,10.3T320.66,184.92Z"/><path class="cls-2" d="M348.56,181.7V156.3a2.61,2.61,0,0,1,.81-1.94,2.72,2.72,0,0,1,2-.79h9a16.94,16.94,0,0,1,12,4.39,14.37,14.37,0,0,1,4.7,11V169a14.49,14.49,0,0,1-4.7,11,16.89,16.89,0,0,1-12,4.41h-9a2.72,2.72,0,0,1-2-.79A2.61,2.61,0,0,1,348.56,181.7Zm5.54-2.21h6.21a10.92,10.92,0,0,0,7.92-2.91,10,10,0,0,0,3-7.5V169a10.11,10.11,0,0,0-3-7.54,10.83,10.83,0,0,0-7.92-3H354.1v21Z"/><path class="cls-2" d="M390.81,182V156a2.54,2.54,0,0,1,.81-1.92,2.76,2.76,0,0,1,2-.77,2.71,2.71,0,0,1,1.93.77,2.54,2.54,0,0,1,.81,1.92V182a2.54,2.54,0,0,1-.81,1.92,2.71,2.71,0,0,1-1.93.77,2.76,2.76,0,0,1-2-.77A2.54,2.54,0,0,1,390.81,182Z"/><path class="cls-2" d="M438.38,180.29a17.32,17.32,0,0,1-23.62,0,15.3,15.3,0,0,1-4.63-11.25V169a15.37,15.37,0,0,1,4.68-11.29,17.32,17.32,0,0,1,23.63,0,15.3,15.3,0,0,1,4.63,11.25V169A15.37,15.37,0,0,1,438.38,180.29ZM419,176.76a10.86,10.86,0,0,0,15.3,0,10.75,10.75,0,0,0,3-7.72V169a10.89,10.89,0,0,0-3-7.78,10.8,10.8,0,0,0-15.3,0,10.82,10.82,0,0,0-3,7.74V169A10.81,10.81,0,0,0,419,176.76Z"/><path class="cls-3" d="M65.18,131.17A81,81,0,0,0,80.95,115.5h0A78.6,78.6,0,0,0,88.27,104,80.15,80.15,0,0,0,94.55,88.3a81.12,81.12,0,0,0,3-22c0-2.74-.14-5.45-0.4-8.12"/><path class="cls-4" d="M108.6,59.28q0.25,3.47.26,7a92.34,92.34,0,0,1-3.2,24.19A90.93,90.93,0,0,1,100.83,104a90.25,90.25,0,0,1-6.28,11.67,91.49,91.49,0,0,1-7.28,10,93.37,93.37,0,0,1-11.83,11.78"/><path class="cls-3" d="M87.23,58.43a72.79,72.79,0,0,1,.43,7.86,71,71,0,0,1-4.22,24.18h0A70.27,70.27,0,0,1,76.1,105.2a71.55,71.55,0,0,1-21.3,21.14"/><path class="cls-4" d="M77.14,59.87a59.21,59.21,0,0,1,.34,6.42,60.64,60.64,0,0,1-5.71,25.8A61.29,61.29,0,0,1,41.44,122"/><path class="cls-3" d="M67,62.6c0.1,1.22.14,2.45,0.14,3.69,0,28.06-23.06,49.54-50.56,51.7-1.05.08-3.11,0.24-4.22,0.41"/><path class="cls-3" d="M94.21,154.23A104.38,104.38,0,0,0,84,144.07a105.1,105.1,0,0,0-8.54-6.61,103.16,103.16,0,0,0-10.26-6.29,98.89,98.89,0,0,0-10.38-4.83A99.6,99.6,0,0,0,41.44,122c-8-2-16.42-2.4-25-3.26-1.45-.15-2.5-0.22-4-0.37"/><path class="cls-4" d="M9.7,130.29q3.64-.28,7.37-0.29a92.44,92.44,0,0,1,24,3.16,90.18,90.18,0,0,1,13.48,4.78h0a88.11,88.11,0,0,1,11.67,6.23,91,91,0,0,1,9.22,6.61,92.19,92.19,0,0,1,12.09,11.86"/><path class="cls-3" d="M8.64,141.71a83.76,83.76,0,0,1,8.43-.43,80.9,80.9,0,0,1,21.92,3A80.92,80.92,0,0,1,65.3,157.16a81.14,81.14,0,0,1,15.94,15.58"/><path class="cls-3" d="M76.36,182.91a71.24,71.24,0,0,0-21.42-20.82,69.92,69.92,0,0,0-13.74-6.7h0a70.85,70.85,0,0,0-24.12-4.2,72.57,72.57,0,0,0-8.12.46"/><path class="cls-4" d="M10.44,161.73a61.24,61.24,0,0,1,31.19,4.78h0A61.33,61.33,0,0,1,72,195.74"/><path class="cls-3" d="M13.21,171.81c1.27-.1,2.56-0.15,3.86-0.15,28.06,0,50.6,22.76,51.46,50.8,0,1.05.11,2.33,0.12,3.44"/><path class="cls-3" d="M17.48,182a40.43,40.43,0,0,1,40,39.49"/><path class="cls-4" d="M24.51,193.8a29.66,29.66,0,0,1,21.12,20.84"/><path class="cls-3" d="M68.65,225.9c0-1.24-.07-2.3-0.12-3.44-0.48-9.23,1.21-18.2,3.49-26.72a101.84,101.84,0,0,1,4.34-12.83,100,100,0,0,1,4.88-10.17,101.85,101.85,0,0,1,6.33-10.1,99.69,99.69,0,0,1,6.64-8.41,104.38,104.38,0,0,1,9.88-9.85"/><path class="cls-4" d="M80.46,228.73q-0.22-3.1-.22-6.27a92.24,92.24,0,0,1,33.12-70.9"/><path class="cls-3" d="M91.87,229.84q-0.35-3.65-.34-7.38a81,81,0,0,1,32.11-64.66"/><path class="cls-3" d="M101.79,229.57q-0.34-3.51-.35-7.11A71.2,71.2,0,0,1,134,162.59"/><path class="cls-4" d="M111.89,228.12c-0.18-1.86-.27-3.75-0.27-5.66a61.08,61.08,0,0,1,35.8-55.62"/><path class="cls-3" d="M122,225.38c-0.06-1-.09-1.94-0.09-2.92,0-28.05,22.53-51.92,50.59-51.92,1,0,2.88,0,4,0"/><path class="cls-3" d="M132.3,221.12A40.43,40.43,0,0,1,171.5,182"/><path class="cls-4" d="M144.36,213.93a29.63,29.63,0,0,1,19.9-19.84"/><path class="cls-3" d="M93.87,134.13a102.54,102.54,0,0,0,19.49,17.43,101.9,101.9,0,0,0,10.28,6.24,102.8,102.8,0,0,0,23.78,9c7.89,1.93,16.06,3.68,24.53,3.68,1.49,0,3,.07,4.51,0"/><path class="cls-4" d="M101.09,124.79a93.07,93.07,0,0,0,22.08,19.59,91.7,91.7,0,0,0,11.64,6.28,90,90,0,0,0,13.48,4.83,92,92,0,0,0,24.42,3.27c2.16,0,4.31-.07,6.43-0.23"/><path class="cls-3" d="M180.31,147.1c-2.5.24-5,.36-7.6,0.36a81.45,81.45,0,0,1-22.28-3.09h0a80.65,80.65,0,0,1-15.6-6.28A79.39,79.39,0,0,1,123.64,131a81.07,81.07,0,0,1-16.3-16.53"/><path class="cls-3" d="M112.16,103.88h0a71.11,71.11,0,0,0,60.55,33.67,72.26,72.26,0,0,0,7.39-.38"/><path class="cls-4" d="M116.44,90.11a61.08,61.08,0,0,0,56.27,37.28,59.67,59.67,0,0,0,6-.3"/><path class="cls-3" d="M120,61c0,1.16.32,3.46,0.53,5.44,2.88,27.08,24.1,50.65,52.16,50.65,1.12,0,2.22,0,3.32-.11"/><path class="cls-3" d="M132.29,66.86a40.42,40.42,0,0,0,39.58,39.84"/><path class="cls-4" d="M144.09,73.88a29.64,29.64,0,0,0,20.84,21"/><path class="cls-3" d="M84,143.82a102,102,0,0,0,9.89-9.94,103.74,103.74,0,0,0,7.22-9.34,102.43,102.43,0,0,0,6.25-10.36,101.38,101.38,0,0,0,4.82-10.54h0a101.35,101.35,0,0,0,4.28-13.77c1.81-7.64,2.53-15.67,3.35-23.73,0.14-1.4.11-3.59,0.23-5.14"/><path class="cls-3" d="M17.11,106.71a40.41,40.41,0,0,0,39.7-39.9"/><path class="cls-4" d="M24,94.9A29.63,29.63,0,0,0,45,73.79"/></svg>